<!-- <svg width="1642" height="516" xmlns="http://www.w3.org/2000/svg">
  <g fill="none" fill-rule="evenodd">
    <path d="M585.76 92.865h26.645L714.24 348h-29.2l-27.375-68.255h-117.53L513.125 348h-29.2L585.76 92.865zm63.875 162.79L598.9 125.715l-50.37 129.94h101.105zm176.295 97.82c-17.277 0-32.85-3.772-46.72-11.315-13.87-7.543-24.82-18.372-32.85-32.485-8.03-14.113-12.045-30.417-12.045-48.91 0-18.25 3.954-34.492 11.862-48.727 7.909-14.236 18.859-25.246 32.85-33.033 13.992-7.787 29.626-11.68 46.903-11.68 16.79 0 31.694 2.98 44.713 8.943 13.018 5.961 23.42 14.66 31.207 26.097v-124.1h28.105V348H902.58v-30.66c-9.247 12.167-20.136 21.23-32.668 27.193-12.531 5.961-27.192 8.942-43.982 8.942zm5.84-22.265c16.79 0 31.45-4.32 43.983-12.957 12.531-8.639 21.23-20.501 26.097-35.588v-43.8c-4.623-15.087-13.2-27.01-25.733-35.77-12.531-8.76-27.314-13.14-44.347-13.14-12.897 0-24.637 2.98-35.222 8.942-10.586 5.962-18.92 14.296-25.003 25.003-6.083 10.707-9.125 22.995-9.125 36.865 0 13.87 3.042 26.158 9.125 36.865s14.417 18.98 25.003 24.82c10.585 5.84 22.325 8.76 35.222 8.76zM964.63 172.8h29.93l55.48 140.525 55.48-140.525h30.295L1064.64 348h-29.2l-70.81-175.2zm232.505-37.96c-4.867 0-9.003-1.703-12.41-5.11s-5.11-7.543-5.11-12.41 1.703-9.003 5.11-12.41 7.543-5.11 12.41-5.11 9.064 1.703 12.592 5.11c3.529 3.407 5.293 7.543 5.293 12.41s-1.764 9.003-5.293 12.41c-3.528 3.407-7.725 5.11-12.592 5.11zm-13.87 37.96h28.105V348h-28.105V172.8zm143.81 180.675c-11.437 0-23.725-1.642-36.865-4.928-13.14-3.285-23.36-7.36-30.66-12.227v-23.725c9.247 5.597 19.892 10.098 31.938 13.505 12.045 3.407 23.664 5.11 34.857 5.11 15.087 0 25.976-2.13 32.668-6.387 6.691-4.259 10.037-10.646 10.037-19.163 0-6.57-1.46-11.74-4.38-15.513-2.92-3.771-7.787-7.117-14.6-10.037-6.813-2.92-17.398-6.327-31.755-10.22-14.113-3.893-25.367-7.97-33.763-12.227-8.395-4.259-14.782-9.673-19.162-16.243-4.38-6.57-6.57-14.965-6.57-25.185 0-15.817 6.387-27.922 19.163-36.318 12.775-8.395 29.747-12.592 50.917-12.592 11.437 0 22.204 1.034 32.303 3.103 10.098 2.068 18.554 4.927 25.367 8.577v23.725c-7.057-3.893-15.573-6.996-25.55-9.307-9.977-2.312-20.318-3.468-31.025-3.468-14.113 0-24.82 2.068-32.12 6.205-7.3 4.137-10.95 10.828-10.95 20.075 0 6.327 1.277 11.193 3.832 14.6 2.556 3.407 7.3 6.51 14.236 9.308 6.935 2.798 18.067 6.265 33.397 10.402 21.9 6.083 37.17 13.2 45.807 21.352 8.639 8.152 12.958 19.406 12.958 33.763 0 14.843-5.78 26.523-17.337 35.04-11.559 8.517-29.14 12.775-52.743 12.775zm208.05 0c-31.877 0-56.757-8.152-74.642-24.455-17.886-16.303-26.828-39.055-26.828-68.255 0-28.713 8.03-51.465 24.09-68.255 16.06-16.79 38.933-25.185 68.62-25.185 19.953 0 36.865 3.832 50.735 11.498 13.87 7.665 24.333 18.189 31.39 31.572 7.057 13.383 10.585 28.592 10.585 45.625v15.33h-159.14c.973 19.953 8.334 34.918 22.082 44.895 13.749 9.977 32.425 14.965 56.028 14.965 11.437 0 22.69-1.034 33.762-3.102 11.072-2.069 20.988-4.928 29.748-8.578v23.725c-7.3 2.92-17.216 5.353-29.748 7.3-12.531 1.947-24.759 2.92-36.682 2.92zm57.67-102.2c-.487-18.98-6.327-33.945-17.52-44.895-11.193-10.95-27.618-16.425-49.275-16.425-21.17 0-37.352 5.657-48.545 16.972-11.193 11.316-17.033 26.098-17.52 44.348h132.86z" fill="#333"/>
    <path fill="#F49713" d="M189.066 0l94.614 171.843H94.687z"/>
    <path fill="#EE3F37" d="M283.466 172.019l94.614 171.843H189.087z"/>
    <path fill="#D7DF22" d="M189.066 344.037L283.68 515.88H94.687z"/>
    <path fill="#F26523" d="M189.3 343.861L94.686 172.018H283.68z"/>
    <path fill="#F49713" d="M283.7 515.88l-94.614-171.843H378.08z"/>
    <path fill="#8CC63E" d="M94.899 515.88L.285 344.037h188.994z"/>
    <path d="M468.584 390.946h45.26c8.857 0 15.622 2.312 20.294 6.935 4.672 4.623 7.008 11.412 7.008 20.367 0 5.256-1.217 9.806-3.65 13.651-2.433 3.845-5.645 6.692-9.636 8.541 11.193 2.92 16.79 10.95 16.79 24.09 0 5.743-1.241 10.78-3.723 15.111-2.482 4.331-5.889 7.64-10.22 9.928-4.331 2.287-9.125 3.431-14.381 3.431h-47.742V390.946zm44.384 44.968c5.45 0 9.612-1.484 12.483-4.453 2.871-2.969 4.307-7.276 4.307-12.921 0-6.424-1.411-11.023-4.234-13.797-2.823-2.774-7.397-4.161-13.724-4.161h-31.828v35.332h32.996zm.876 47.45c6.424 0 11.266-1.46 14.527-4.38 3.26-2.92 4.891-7.835 4.891-14.746 0-6.716-1.703-11.51-5.11-14.381-3.407-2.871-8.711-4.307-15.914-4.307h-32.266v37.814h33.872zm76.65 11.826c-9.344 0-16.522-2.53-21.535-7.592-5.013-5.061-7.519-11.826-7.519-20.294V422.92h11.242v44.968c0 12.264 6.375 18.396 19.126 18.396 5.353 0 10.05-1.168 14.089-3.504 4.04-2.336 7.665-6.035 10.877-11.096V422.92h11.242V493h-10.95v-10.512c-6.327 8.468-15.184 12.702-26.572 12.702zm82.344 0c-4.575 0-9.49-.657-14.746-1.971s-9.344-2.944-12.264-4.891v-9.49c3.699 2.239 7.957 4.04 12.775 5.402 4.818 1.363 9.466 2.044 13.943 2.044 6.035 0 10.39-.852 13.067-2.555 2.677-1.703 4.015-4.258 4.015-7.665 0-2.628-.584-4.696-1.752-6.205-1.168-1.509-3.115-2.847-5.84-4.015-2.725-1.168-6.96-2.53-12.702-4.088-5.645-1.557-10.147-3.188-13.505-4.891-3.358-1.703-5.913-3.869-7.665-6.497-1.752-2.628-2.628-5.986-2.628-10.074 0-6.327 2.555-11.169 7.665-14.527 5.11-3.358 11.899-5.037 20.367-5.037 4.575 0 8.882.414 12.921 1.241 4.04.827 7.422 1.971 10.147 3.431v9.49c-2.823-1.557-6.23-2.798-10.22-3.723-3.99-.925-8.127-1.387-12.41-1.387-5.645 0-9.928.827-12.848 2.482-2.92 1.655-4.38 4.331-4.38 8.03 0 2.53.511 4.477 1.533 5.84 1.022 1.363 2.92 2.604 5.694 3.723 2.774 1.12 7.227 2.506 13.359 4.161 8.76 2.433 14.868 5.28 18.323 8.541 3.455 3.26 5.183 7.762 5.183 13.505 0 5.937-2.312 10.61-6.935 14.016-4.623 3.407-11.656 5.11-21.097 5.11zm52.56-87.454c-1.947 0-3.601-.681-4.964-2.044-1.363-1.363-2.044-3.017-2.044-4.964 0-1.947.681-3.601 2.044-4.964 1.363-1.363 3.017-2.044 4.964-2.044 1.947 0 3.626.681 5.037 2.044s2.117 3.017 2.117 4.964c0 1.947-.706 3.601-2.117 4.964-1.411 1.363-3.09 2.044-5.037 2.044zm-5.548 15.184h11.242V493H719.85v-70.08zm33.142 0h10.95v10.512c3.407-4.38 7.568-7.592 12.483-9.636 4.915-2.044 10.147-3.066 15.695-3.066 9.247 0 16.133 2.433 20.659 7.3s6.789 11.388 6.789 19.564V493h-11.242v-44.384c0-6.035-1.46-10.682-4.38-13.943-2.92-3.26-7.592-4.891-14.016-4.891-10.804 0-19.37 4.867-25.696 14.6V493h-11.242v-70.08zm123.954 72.27c-12.75 0-22.703-3.26-29.857-9.782-7.154-6.521-10.731-15.622-10.731-27.302 0-11.485 3.212-20.586 9.636-27.302 6.424-6.716 15.573-10.074 27.448-10.074 7.981 0 14.746 1.533 20.294 4.599 5.548 3.066 9.733 7.276 12.556 12.629 2.823 5.353 4.234 11.437 4.234 18.25v6.132H846.87c.39 7.981 3.334 13.967 8.833 17.958 5.5 3.99 12.97 5.986 22.411 5.986 4.575 0 9.076-.414 13.505-1.241 4.429-.827 8.395-1.971 11.899-3.431v9.49c-2.92 1.168-6.886 2.141-11.899 2.92-5.013.779-9.904 1.168-14.673 1.168zm23.068-40.88c-.195-7.592-2.53-13.578-7.008-17.958-4.477-4.38-11.047-6.57-19.71-6.57-8.468 0-14.94 2.263-19.418 6.789-4.477 4.526-6.813 10.439-7.008 17.739h53.144zm52.414 40.88c-4.575 0-9.49-.657-14.746-1.971s-9.344-2.944-12.264-4.891v-9.49c3.699 2.239 7.957 4.04 12.775 5.402 4.818 1.363 9.466 2.044 13.943 2.044 6.035 0 10.39-.852 13.067-2.555 2.677-1.703 4.015-4.258 4.015-7.665 0-2.628-.584-4.696-1.752-6.205-1.168-1.509-3.115-2.847-5.84-4.015-2.725-1.168-6.96-2.53-12.702-4.088-5.645-1.557-10.147-3.188-13.505-4.891-3.358-1.703-5.913-3.869-7.665-6.497-1.752-2.628-2.628-5.986-2.628-10.074 0-6.327 2.555-11.169 7.665-14.527 5.11-3.358 11.899-5.037 20.367-5.037 4.575 0 8.882.414 12.921 1.241 4.04.827 7.422 1.971 10.147 3.431v9.49c-2.823-1.557-6.23-2.798-10.22-3.723-3.99-.925-8.127-1.387-12.41-1.387-5.645 0-9.928.827-12.848 2.482-2.92 1.655-4.38 4.331-4.38 8.03 0 2.53.511 4.477 1.533 5.84 1.022 1.363 2.92 2.604 5.694 3.723 2.774 1.12 7.227 2.506 13.359 4.161 8.76 2.433 14.868 5.28 18.323 8.541 3.455 3.26 5.183 7.762 5.183 13.505 0 5.937-2.312 10.61-6.935 14.016-4.623 3.407-11.656 5.11-21.097 5.11zm66.284 0c-4.575 0-9.49-.657-14.746-1.971s-9.344-2.944-12.264-4.891v-9.49c3.699 2.239 7.957 4.04 12.775 5.402 4.818 1.363 9.466 2.044 13.943 2.044 6.035 0 10.39-.852 13.067-2.555 2.677-1.703 4.015-4.258 4.015-7.665 0-2.628-.584-4.696-1.752-6.205-1.168-1.509-3.115-2.847-5.84-4.015-2.725-1.168-6.96-2.53-12.702-4.088-5.645-1.557-10.147-3.188-13.505-4.891-3.358-1.703-5.913-3.869-7.665-6.497-1.752-2.628-2.628-5.986-2.628-10.074 0-6.327 2.555-11.169 7.665-14.527 5.11-3.358 11.899-5.037 20.367-5.037 4.575 0 8.882.414 12.921 1.241 4.04.827 7.422 1.971 10.147 3.431v9.49c-2.823-1.557-6.23-2.798-10.22-3.723-3.99-.925-8.127-1.387-12.41-1.387-5.645 0-9.928.827-12.848 2.482-2.92 1.655-4.38 4.331-4.38 8.03 0 2.53.511 4.477 1.533 5.84 1.022 1.363 2.92 2.604 5.694 3.723 2.774 1.12 7.227 2.506 13.359 4.161 8.76 2.433 14.868 5.28 18.323 8.541 3.455 3.26 5.183 7.762 5.183 13.505 0 5.937-2.312 10.61-6.935 14.016-4.623 3.407-11.656 5.11-21.097 5.11zm101.032-104.244h11.68l38.544 84.242 38.544-84.242h11.68V493h-11.242v-78.84L1172.888 493h-5.84l-36.062-78.84V493h-11.242V390.946zm156.804 104.244c-7.592 0-14.332-1.509-20.221-4.526-5.889-3.017-10.463-7.324-13.724-12.921-3.26-5.597-4.891-12.142-4.891-19.637 0-7.397 1.655-13.919 4.964-19.564 3.31-5.645 7.908-10.025 13.797-13.14s12.58-4.672 20.075-4.672c7.495 0 14.186 1.557 20.075 4.672 5.889 3.115 10.488 7.495 13.797 13.14 3.31 5.645 4.964 12.167 4.964 19.564 0 7.495-1.63 14.04-4.891 19.637-3.26 5.597-7.835 9.904-13.724 12.921-5.889 3.017-12.629 4.526-20.221 4.526zm0-8.906c8.37 0 15.062-2.555 20.075-7.665 5.013-5.11 7.519-11.948 7.519-20.513 0-8.663-2.506-15.549-7.519-20.659-5.013-5.11-11.704-7.665-20.075-7.665-8.37 0-15.062 2.555-20.075 7.665-5.013 5.11-7.519 11.996-7.519 20.659 0 8.565 2.506 15.403 7.519 20.513 5.013 5.11 11.704 7.665 20.075 7.665zm56.356-63.364h10.95v10.512c3.407-4.38 7.568-7.592 12.483-9.636 4.915-2.044 10.147-3.066 15.695-3.066 9.247 0 16.133 2.433 20.659 7.3s6.789 11.388 6.789 19.564V493h-11.242v-44.384c0-6.035-1.46-10.682-4.38-13.943-2.92-3.26-7.592-4.891-14.016-4.891-10.804 0-19.37 4.867-25.696 14.6V493h-11.242v-70.08zm93.294-15.184c-1.947 0-3.601-.681-4.964-2.044-1.363-1.363-2.044-3.017-2.044-4.964 0-1.947.681-3.601 2.044-4.964 1.363-1.363 3.017-2.044 4.964-2.044 1.947 0 3.626.681 5.037 2.044s2.117 3.017 2.117 4.964c0 1.947-.706 3.601-2.117 4.964-1.411 1.363-3.09 2.044-5.037 2.044zm-5.548 15.184h11.242V493h-11.242v-70.08zm59.13 72.27c-6.619 0-11.753-1.947-15.403-5.84-3.65-3.893-5.475-9.441-5.475-16.644V431.68h-10.95v-8.76h10.95v-21.024h11.242v21.024h17.666v8.76h-17.666v41.318c0 4.867.973 8.298 2.92 10.293 1.947 1.995 5.5 2.993 10.658 2.993 2.53 0 5.207-.584 8.03-1.752v9.198c-3.212.973-7.203 1.46-11.972 1.46zm62.488 0c-7.592 0-14.332-1.509-20.221-4.526-5.889-3.017-10.463-7.324-13.724-12.921-3.26-5.597-4.891-12.142-4.891-19.637 0-7.397 1.655-13.919 4.964-19.564 3.31-5.645 7.908-10.025 13.797-13.14s12.58-4.672 20.075-4.672c7.495 0 14.186 1.557 20.075 4.672 5.889 3.115 10.488 7.495 13.797 13.14 3.31 5.645 4.964 12.167 4.964 19.564 0 7.495-1.63 14.04-4.891 19.637-3.26 5.597-7.835 9.904-13.724 12.921-5.889 3.017-12.629 4.526-20.221 4.526zm0-8.906c8.37 0 15.062-2.555 20.075-7.665 5.013-5.11 7.519-11.948 7.519-20.513 0-8.663-2.506-15.549-7.519-20.659-5.013-5.11-11.704-7.665-20.075-7.665-8.37 0-15.062 2.555-20.075 7.665-5.013 5.11-7.519 11.996-7.519 20.659 0 8.565 2.506 15.403 7.519 20.513 5.013 5.11 11.704 7.665 20.075 7.665zm56.356-63.364h10.95v13.724c5.645-9.15 16.206-13.724 31.682-13.724v9.052c-16.936 0-27.4 5.597-31.39 16.79V493h-11.242v-70.08z" fill="#333"/>
  </g>
</svg> -->
<svg xmlns="http://www.w3.org/2000/svg" xmlns:xlink="http://www.w3.org/1999/xlink" width="1980.8" height="357.7" viewBox="0 0 1981 358">
  <defs>
    <linearGradient id="a" x1="1" x2="0" y1=".5" y2=".5" gradientUnits="objectBoundingBox">
      <stop offset="0" stop-color="#3cc1e3"/>
      <stop offset="1" stop-color="#5bf7a7"/>
    </linearGradient>
    <linearGradient id="b" x1=".9" x2=".4" y1=".8" y2=".1" gradientUnits="objectBoundingBox">
      <stop offset="0" stop-color="#067fec"/>
      <stop offset="1" stop-color="#0ab8e7"/>
    </linearGradient>
    <linearGradient id="c" x1=".5" x2=".5" y1=".9" y2="0" xlink:href="#a"/>
    <linearGradient id="d" x1=".7" x2=".1" y1=".9" y2=".3" xlink:href="#b"/>
    <linearGradient id="e" x1="1" x2="0" y1="1" y2=".1" gradientUnits="objectBoundingBox">
      <stop offset="0" stop-color="#0160eb"/>
      <stop offset="1" stop-color="#0ab8e7"/>
    </linearGradient>
    <linearGradient id="f" x1=".9" x2=".1" y1="1" y2=".1" gradientUnits="objectBoundingBox">
      <stop offset="0" stop-color="#0160eb"/>
      <stop offset="1" stop-color="#5efca1"/>
    </linearGradient>
  </defs>
  <path fill="url(#a)" fill-rule="evenodd" d="M1046 663c13-38-7-57-40-60H875a10 10 0 00-10 10v40a10 10 0 0010 10h171z" data-name="Path 1" transform="translate(-724 -550)"/>
  <path fill="url(#b)" fill-rule="evenodd" d="M1310 658a55 55 0 00-56-55h-45q41 6 40 60c34 7 56 14 61 40z" data-name="Path 2" transform="translate(-927 -550)"/>
  <path fill="#5bf7a7" fill-rule="evenodd" d="M98 0h40a10 10 0 0110 10v40a10 10 0 01-10 10H98a10 10 0 01-11-10V10A10 10 0 0198 0z" data-name="Path 3"/>
  <path fill="#0050ca" fill-rule="evenodd" d="M383 154q-7-41-61-41v13c23 4 49 15 61 28z" data-name="Path 4"/>
  <path fill="#005eeb" fill-rule="evenodd" d="M383 154c-9-22-36-31-61-31v172H148c-1 31 13 53 33 60h202V154z" data-name="Path 5"/>
  <path fill="url(#c)" fill-rule="evenodd" d="M778 793v-33a10 10 0 00-11-10h-40a10 10 0 00-10 10v131c4 34 23 52 61 40z" data-name="Path 6" transform="translate(-636 -637)"/>
  <path fill="url(#d)" fill-rule="evenodd" d="M818 1195c-26-5-36-27-40-60q-54 0-61-41v46a55 55 0 0055 55h46z" data-name="Path 7" transform="translate(-636 -840)"/>
  <path fill="#0050ca" fill-rule="evenodd" d="M181 355c-20-7-30-29-29-60h-11q-1 54 40 60z" data-name="Path 8"/>
  <path fill="url(#e)" fill-rule="evenodd" d="M1022 958h40a10 10 0 0010-10v-41a10 10 0 00-10-10h-40a10 10 0 00-10 10v41a10 10 0 0010 10z" data-name="Path 9" transform="translate(-810 -723)"/>
  <path fill="#5bf7a7" fill-rule="evenodd" d="M10 93h28a10 10 0 0110 10v28a10 10 0 01-10 10H10a10 10 0 01-10-10v-28a10 10 0 0110-10z" data-name="Path 10"/>
  <path fill="#5bf7a7" fill-rule="evenodd" d="M22 11h17a10 10 0 0110 10v17a10 10 0 01-10 10H22a10 10 0 01-10-10V21a10 10 0 0110-10z" data-name="Path 11"/>
  <path fill="#1a2530" d="M727 222c0-73-54-133-131-133s-130 60-130 133c0 74 54 133 122 133 17 0 34-4 49-11v-65a61 61 0 01-41 16c-36 0-65-32-65-72 0-42 29-73 65-73s66 33 66 73l-1 7v119h66z" data-name="Path 12"/>
  <path fill="#1a2530" d="M1011 0h-65v223c0 39-29 72-65 72s-65-32-65-72c0-42 29-73 65-73a61 61 0 0141 16v-65c-15-8-32-11-51-11-66 0-121 59-121 132 0 74 54 133 131 133 76 0 130-59 130-133z" data-name="Path 13"/>
  <path fill="#1a2530" d="M1294 95h-67l-64 190-63-190h-68l96 254h70z" data-name="Path 14"/>
  <path fill="#1a2530" d="M1318 95h65v254h-65z" data-name="Rectangle 1"/>
  <path fill="#1a2530" d="M1418 281q4 37 36 56t77 18q50 0 80-21t30-63c0-17-6-32-17-45s-28-21-49-26l-60-13q-23-5-23-21c0-7 3-13 8-18s15-7 27-7c13 0 24 3 33 10s13 14 14 25l64-13q-7-33-36-54-30-20-73-20-47 0-75 23t-28 60q0 27 18 46c13 12 30 21 53 25l51 11c19 4 28 12 28 23 0 7-4 13-11 18s-16 7-28 7q-48 0-52-34z" data-name="Path 15"/>
  <path fill="#1a2530" fill-rule="evenodd" d="M1787 355c63 0 108-35 123-87h-70a60 60 0 01-54 30c-22 0-41-10-54-27a91 91 0 01-15-52c2-43 32-73 69-73 21 0 39 8 51 23l-101 42c-1 17 4 38 15 52l161-68c-13-68-64-106-125-106-72 0-130 60-130 134s58 132 130 132z" data-name="Path 16"/>
  <path fill="url(#f)" fill-rule="evenodd" d="M4360 1032h35a9 9 0 009-9v-35a9 9 0 00-9-9h-35a9 9 0 00-9 9v35a9 9 0 009 9z" data-name="Path 17" transform="translate(-2423 -674)"/>
</svg>

